<svg xmlns="http://www.w3.org/2000/svg"  viewBox="0 0 64 64" width="64px" height="64px"><linearGradient id="DeW_coxmHImy0NzlR572Ta" x1="32.87" x2="32.87" y1="4" y2="60" gradientUnits="userSpaceOnUse"><stop offset="0" stop-color="#6dc7ff"/><stop offset="1" stop-color="#e6abff"/></linearGradient><path fill="url(#DeW_coxmHImy0NzlR572Ta)" d="M22.695,31.371l5.513,4.978l-2.177,0.206l-1.706-2.167h-0.492L22.695,31.371z M26.943,41.091 l1.798-4.26l-0.03-0.028l-2.467,0.234L26.943,41.091z M32.463,41.441l3.184-4.681l-3.087,0.001c-0.026,0-0.043-0.02-0.066-0.027 c-0.023,0.007-0.04,0.027-0.066,0.027h-3.088L32.463,41.441z M32.009,41.661l-2.919-4.372l-3.391,8.036L32.009,41.661z M40.615,50.837l-0.954-4.716l-0.005-0.005l-6.424-3.697L40.615,50.837z M31.815,42.352l-6.483,3.763l-0.012,0.012l-0.955,4.719 L31.815,42.352z M32.918,41.662l6.372,3.667l-3.395-8.045L32.918,41.662z M23.617,19.269l-6.166,5.402l6.166,0.295V19.269z M32.937,24.862l2.968,10.915l3.664-8.053L32.937,24.862z M36.274,36.803l-0.028,0.026l1.794,4.251l0.698-4.044L36.274,36.803z M19.328,41.561c-0.058-0.046-0.092-0.116-0.094-0.19s0.03-0.146,0.086-0.194l2.28-1.974l-0.789-3.044l1.77-1.77h0.718 l-1.037-2.747L21.995,32l-0.499,0.039L19.37,37v4l-1.899,4.747l7.002-0.073L19.328,41.561z M37.862,55.556l3.047-3.27l-0.094-0.463 l-7.776-8.865L37.862,55.556z M17.713,25.88L18.37,27l3.299,2.474h0l2.386-1.542l-4.213-1.82L17.713,25.88z M14.743,20.815 l2.155,3.675L23,19.146L14.743,20.815z M38.32,41.744l1.591,3.77l5.201-4.157l-1.953-1.692l-2.732,2.079H38.32z M40.514,46.981 l1.961,4.756h2.755L40.514,46.981z M19.576,51.737h2.931l1.976-4.793L19.576,51.737z M32.428,36.262 c0.026,0,0.043,0.02,0.066,0.027c0.023-0.007,0.04-0.027,0.066-0.027h2.959l-3.025-11.125l-3.026,11.126L32.428,36.262z M25.076,45.515l1.591-3.77h-2.114l-2.728-2.076l-1.951,1.689L25.076,45.515z M28.68,36.102l-3.696-8.123l-2.129,2.864 L28.68,36.102z M23.5,18.534l-3.489-7.826l-0.605-0.466l-4.532,10.036L23.5,18.534z M29.082,35.777l2.969-10.915l-6.632,2.862 L29.082,35.777z M24.122,16.071l0.878,1.782l0.215,7.753l1.752-9.086c0.026-0.137,0.158-0.232,0.293-0.198 c0.136,0.025,0.224,0.157,0.198,0.292L25.42,27.179l6.909-2.981c0.053-0.023,0.111-0.02,0.166-0.005 c0.055-0.015,0.112-0.018,0.164,0.005l6.908,2.981l-1.889-9.794L37.37,18l-1,7l-3.758-1l-3.242,1l-1-7l-3-6l-1.249-1.427V16.071z M16.433,4.285l0.335-0.049l-0.383-0.032L16.433,4.285z M18.998,9.929l-4.628-3.56v13.809L18.998,9.929z M18.202,7.324 l-1.769-3.039l-1.956,0.288L18.202,7.324z M23.622,15.056v-4.558c0-0.128,0.1-0.225,0.225-0.24L18.37,4l-1.602,0.236l1.591,0.135 L23.622,15.056z M14.37,4v0.589L14.887,4H14.37z M50.094,4l0.479,0.546L47.37,4l-0.271,0.31l1.524-0.007l-1.702,2.933l3.727-2.604 l0.722,0.823V4H50.094z M50.771,20.518c0.039,0.085,0.026,0.185-0.033,0.259c-0.058,0.073-0.154,0.106-0.245,0.089l-8.506-1.72 l6.285,5.506l0.473,0.004l2.625-4.475V5.785l-5.383,4.141L50.771,20.518z M30.735,55.339l-2.162,1.979h-1.669l-4.439-5.08h-3.307 c-0.026,0-0.043-0.02-0.066-0.028l-0.251,0.245c-0.049,0.048-0.112,0.071-0.175,0.071c-0.065,0-0.13-0.025-0.179-0.075 c-0.097-0.099-0.095-0.257,0.004-0.354l6.066-5.925l-7.148,0.075l0.961,6.14l5,5.612h5l1.589,0.706L30.735,55.339z M46.37,37 l-2.333-5.444l-1.021,0.894l-0.389-0.572l-0.94,2.51H42.4l1.77,1.77l-0.788,3.039l2.285,1.979c0.056,0.049,0.088,0.12,0.086,0.194 s-0.036,0.145-0.094,0.19l-5.146,4.113l7.29,0.076c0.138,0.002,0.249,0.114,0.248,0.253c-0.001,0.137-0.113,0.247-0.25,0.247 c-0.001,0-0.002,0-0.002,0l-7.383-0.078l5.59,5.638c0,0,0,0,0.001,0.001l0.7,0.707c0.097,0.098,0.096,0.256-0.002,0.354 c-0.048,0.048-0.112,0.072-0.176,0.072c-0.064,0-0.128-0.024-0.178-0.074l-0.626-0.632h-3.209l-4.439,5.08h-1.669l-2.154-1.971 l0.801,3.482c0.025,0.11-0.038,0.206-0.131,0.259L37.37,58h5l5-5.612l1-6.388l-2-5V37z M34.812,59.134 c-0.114,0-0.217-0.078-0.244-0.194l-0.939-4.078l-1.139-0.047l-1.133,0.046l-0.933,4.052L32.87,60l1.952-0.867 C34.819,59.133,34.815,59.134,34.812,59.134z M34.612,48.467l-2.119-5.535l-2.12,5.538l2.117,1.515L34.612,48.467z M42.248,31.322 l-5.479,5.026l2.181,0.205l1.705-2.166h0.496l1.13-3.016L42.248,31.322z M35.174,49.933l-1.597,1.064v1.264l3.579,2.851 L35.174,49.933z M36.313,36.089l5.651-5.185l-1.973-2.9L36.313,36.089z M39.768,25.581l0.214-7.727l0.884-1.795v-4.625L40.37,12 l-2.325,4.65L39.768,25.581z M31.948,42.958l-7.784,8.874l-0.092,0.454l3.051,3.274L31.948,42.958z M31.404,50.997l-1.592-1.061 l-1.979,5.169l3.57-2.843V50.997z M43.739,29.724L47.37,27l0.709-1.208l-2.94,0.321l-4.214,1.82l2.387,1.542L43.739,29.724z M41.366,10.862v4.181l4.711-9.565L41.366,10.862z M41.482,18.533l8.632,1.745l-4.533-10.04l-0.61,0.469L41.482,18.533z M41.364,24.966l6.172-0.296l-6.172-5.407V24.966z"/><linearGradient id="DeW_coxmHImy0NzlR572Tb" x1="-114.428" x2="-114.428" y1="3" y2="61" gradientTransform="matrix(-1 0 0 1 -82 0)" gradientUnits="userSpaceOnUse"><stop offset="0" stop-color="#1a6dff"/><stop offset="1" stop-color="#c822ff"/></linearGradient><polygon fill="none" stroke="url(#DeW_coxmHImy0NzlR572Tb)" stroke-linecap="round" stroke-linejoin="round" stroke-miterlimit="10" stroke-width="2" points="32.428,24 35.928,25 36.928,18 39.928,12 46.928,4 50.928,4 50.928,20.18 46.928,27 42.928,30 45.928,37 45.928,41 47.928,46 46.928,52.388 41.928,58 36.928,58 32.428,60 27.928,58 22.928,58 17.928,52.388 16.928,46 18.928,41 18.928,37 21.928,30 17.928,27 13.928,20.18 13.928,4 17.928,4 24.928,12 27.928,18 28.928,25"/></svg>